<svg xmlns="http://www.w3.org/2000/svg" xmlns:xlink="http://www.w3.org/1999/xlink" width="500" zoomAndPan="magnify" viewBox="0 0 375 374.999991" height="500" preserveAspectRatio="xMidYMid meet" version="1.0"><defs><g/><clipPath id="f71b070814"><path d="M 117 89 L 269.75 89 L 269.75 227.242188 L 117 227.242188 Z M 117 89 " clip-rule="nonzero"/></clipPath><clipPath id="fd805f0b93"><path d="M 78.5 25.492188 L 190 25.492188 L 190 103 L 78.5 103 Z M 78.5 25.492188 " clip-rule="nonzero"/></clipPath></defs><g clip-path="url(#f71b070814)"><path fill="#054d3b" d="M 194.75 216.535156 C 207.921875 216.226562 220.652344 212.570312 231.292969 206.242188 C 241.761719 199.984375 250.148438 191.0625 254.867188 180.15625 C 259.453125 169.523438 260.546875 156.871094 256.648438 142.78125 C 252.164062 126.679688 241.113281 114.199219 227.976562 107.429688 C 222.707031 104.726562 217.164062 102.914062 211.585938 102.195312 C 206.078125 101.476562 200.566406 101.75 195.332031 103.222656 C 185.445312 105.957031 176.445312 112.863281 170.21875 124.898438 C 166.660156 131.808594 165.050781 139.363281 165.324219 146.851562 C 165.394531 148.835938 165.597656 150.785156 165.941406 152.734375 C 166.113281 153.828125 166.351562 154.957031 166.660156 156.015625 L 166.660156 156.050781 C 168.917969 164.5625 174.496094 171.882812 182.230469 176.328125 C 175.320312 169.351562 170.9375 160.289062 169.773438 150.648438 C 172.203125 147.023438 174.976562 144.117188 177.953125 141.792969 C 185 136.21875 192.9375 134.0625 199.746094 133.105469 C 223.082031 129.855469 231.773438 146.164062 245.019531 161.554688 C 246.148438 162.886719 246.148438 164.835938 244.980469 166.136719 C 244.914062 166.203125 244.8125 166.304688 244.742188 166.40625 C 244.058594 167.191406 243.136719 167.570312 242.109375 167.570312 C 241.046875 167.570312 240.160156 167.125 239.476562 166.339844 L 234.785156 160.765625 C 234.683594 162.921875 234.273438 165.109375 233.625 167.230469 C 230.613281 176.664062 222.164062 185.386719 207.242188 189.144531 C 198.960938 191.265625 190.375 190.957031 182.570312 188.359375 C 174.941406 185.828125 168.097656 181.109375 163.035156 174.371094 L 163 174.304688 L 162.796875 173.964844 C 157.734375 165.753906 154.992188 156.558594 154.652344 147.222656 C 154.277344 137.957031 156.296875 128.554688 160.707031 120.007812 C 168.441406 105.066406 179.871094 96.414062 192.496094 92.894531 C 199.132812 91.078125 206.082031 90.671875 212.957031 91.59375 C 219.800781 92.484375 226.542969 94.671875 232.871094 97.917969 C 248.472656 105.988281 261.644531 120.792969 266.949219 139.90625 C 271.570312 156.554688 270.234375 171.601562 264.726562 184.390625 C 259.082031 197.414062 249.125 208.015625 236.769531 215.402344 C 224.589844 222.683594 210.011719 226.855469 194.957031 227.199219 C 153.25 228.152344 112.566406 200.800781 117.730469 154.949219 C 120.09375 134.058594 129.46875 111.59375 134.636719 89.027344 C 138.160156 111.183594 127.28125 134.058594 127.105469 157 C 126.800781 194.953125 158.996094 217.351562 194.753906 216.53125 Z M 194.75 216.535156 " fill-opacity="1" fill-rule="nonzero"/></g><g clip-path="url(#fd805f0b93)"><path fill="#799e29" d="M 181.097656 57.878906 C 160.429688 62.363281 144.109375 78.15625 138.941406 98.671875 C 136.617188 85.132812 141.304688 71.320312 151.363281 61.984375 C 161.457031 52.648438 175.589844 49.0625 188.933594 52.414062 C 189.71875 65.507812 185.03125 78.363281 175.929688 87.832031 C 166.828125 97.304688 154.203125 102.535156 141.066406 102.296875 C 146.886719 82.125 161.628906 65.746094 181.101562 57.878906 Z M 89.433594 34.835938 C 113.519531 47.109375 128.578125 71.96875 128.234375 99.015625 C 135.558594 83.011719 134.292969 64.410156 124.847656 49.609375 C 115.4375 34.769531 99.152344 25.707031 81.5625 25.503906 C 76.257812 41.433594 77.902344 58.875 86.046875 73.542969 C 94.222656 88.210938 108.117188 98.84375 124.472656 102.777344 C 123.855469 75.96875 110.957031 50.910156 89.433594 34.835938 Z M 89.433594 34.835938 " fill-opacity="1" fill-rule="evenodd"/></g><g fill="#054d3b" fill-opacity="1"><g transform="translate(125.447315, 282.729364)"><g><path d="M 15.328125 0 L 10.34375 0 C 7.863281 0 5.945312 -0.65625 4.59375 -1.96875 C 3.25 -3.289062 2.578125 -5.1875 2.578125 -7.65625 L 2.578125 -22.5625 C 2.578125 -25.03125 3.25 -26.921875 4.59375 -28.234375 C 5.945312 -29.554688 7.863281 -30.21875 10.34375 -30.21875 L 15.328125 -30.21875 C 17.765625 -30.21875 19.65625 -29.550781 21 -28.21875 C 22.351562 -26.882812 23.03125 -25 23.03125 -22.5625 L 23.03125 -21.15625 C 23.03125 -20.457031 22.703125 -20.109375 22.046875 -20.109375 L 18.046875 -20.109375 C 17.390625 -20.109375 17.0625 -20.457031 17.0625 -21.15625 L 17.0625 -22.28125 C 17.0625 -23.28125 16.859375 -23.988281 16.453125 -24.40625 C 16.046875 -24.832031 15.335938 -25.046875 14.328125 -25.046875 L 11.28125 -25.046875 C 10.3125 -25.046875 9.613281 -24.832031 9.1875 -24.40625 C 8.757812 -23.988281 8.546875 -23.28125 8.546875 -22.28125 L 8.546875 -7.9375 C 8.546875 -6.9375 8.757812 -6.222656 9.1875 -5.796875 C 9.613281 -5.378906 10.3125 -5.171875 11.28125 -5.171875 L 14.328125 -5.171875 C 15.335938 -5.171875 16.046875 -5.378906 16.453125 -5.796875 C 16.859375 -6.222656 17.0625 -6.9375 17.0625 -7.9375 L 17.0625 -10.90625 C 17.0625 -11.25 16.890625 -11.421875 16.546875 -11.421875 L 13.71875 -11.421875 C 13.0625 -11.421875 12.734375 -11.75 12.734375 -12.40625 L 12.734375 -15.609375 C 12.734375 -16.265625 13.0625 -16.59375 13.71875 -16.59375 L 21.953125 -16.59375 C 22.671875 -16.59375 23.03125 -16.234375 23.03125 -15.515625 L 23.03125 -7.65625 C 23.03125 -5.21875 22.351562 -3.332031 21 -2 C 19.65625 -0.664062 17.765625 0 15.328125 0 Z M 15.328125 0 "/></g></g></g><g fill="#054d3b" fill-opacity="1"><g transform="translate(154.024601, 282.729364)"><g><path d="M 8.03125 0 L 4.046875 0 C 3.390625 0 3.0625 -0.328125 3.0625 -0.984375 L 3.0625 -29.234375 C 3.0625 -29.890625 3.390625 -30.21875 4.046875 -30.21875 L 15.234375 -30.21875 C 17.671875 -30.21875 19.578125 -29.539062 20.953125 -28.1875 C 22.335938 -26.84375 23.03125 -24.953125 23.03125 -22.515625 L 23.03125 -18.84375 C 23.03125 -15.300781 21.632812 -12.953125 18.84375 -11.796875 L 18.84375 -11.609375 L 23.875 -1.125 C 24.15625 -0.375 23.890625 0 23.078125 0 L 19.265625 0 C 18.703125 0 18.296875 -0.0625 18.046875 -0.1875 C 17.796875 -0.3125 17.59375 -0.578125 17.4375 -0.984375 L 12.734375 -11.140625 L 9.59375 -11.140625 C 9.21875 -11.140625 9.03125 -10.96875 9.03125 -10.625 L 9.03125 -0.984375 C 9.03125 -0.328125 8.695312 0 8.03125 0 Z M 9.546875 -15.9375 L 14.140625 -15.9375 C 15.148438 -15.9375 15.890625 -16.144531 16.359375 -16.5625 C 16.828125 -16.988281 17.0625 -17.671875 17.0625 -18.609375 L 17.0625 -22.28125 C 17.0625 -23.25 16.828125 -23.953125 16.359375 -24.390625 C 15.890625 -24.828125 15.148438 -25.046875 14.140625 -25.046875 L 9.546875 -25.046875 C 9.203125 -25.046875 9.03125 -24.875 9.03125 -24.53125 L 9.03125 -16.453125 C 9.03125 -16.109375 9.203125 -15.9375 9.546875 -15.9375 Z M 9.546875 -15.9375 "/></g></g></g><g fill="#054d3b" fill-opacity="1"><g transform="translate(182.695883, 282.729364)"><g><path d="M 11.28125 -5.171875 L 14.609375 -5.171875 C 15.617188 -5.171875 16.332031 -5.378906 16.75 -5.796875 C 17.175781 -6.222656 17.390625 -6.9375 17.390625 -7.9375 L 17.390625 -22.28125 C 17.390625 -23.28125 17.175781 -23.988281 16.75 -24.40625 C 16.332031 -24.832031 15.617188 -25.046875 14.609375 -25.046875 L 11.28125 -25.046875 C 10.28125 -25.046875 9.570312 -24.832031 9.15625 -24.40625 C 8.75 -23.988281 8.546875 -23.28125 8.546875 -22.28125 L 8.546875 -7.9375 C 8.546875 -6.9375 8.75 -6.222656 9.15625 -5.796875 C 9.570312 -5.378906 10.28125 -5.171875 11.28125 -5.171875 Z M 15.609375 0 L 10.34375 0 C 7.863281 0 5.945312 -0.65625 4.59375 -1.96875 C 3.25 -3.289062 2.578125 -5.1875 2.578125 -7.65625 L 2.578125 -22.5625 C 2.578125 -25.03125 3.25 -26.921875 4.59375 -28.234375 C 5.945312 -29.554688 7.863281 -30.21875 10.34375 -30.21875 L 15.609375 -30.21875 C 18.078125 -30.21875 19.984375 -29.554688 21.328125 -28.234375 C 22.679688 -26.921875 23.359375 -25.03125 23.359375 -22.5625 L 23.359375 -7.65625 C 23.359375 -5.1875 22.679688 -3.289062 21.328125 -1.96875 C 19.984375 -0.65625 18.078125 0 15.609375 0 Z M 15.609375 0 "/></g></g></g><g fill="#054d3b" fill-opacity="1"><g transform="translate(211.602168, 282.729364)"><g><path d="M 13.484375 0 L 6.90625 0 C 6.21875 0 5.828125 -0.328125 5.734375 -0.984375 L 0.703125 -29.234375 C 0.609375 -29.890625 0.9375 -30.21875 1.6875 -30.21875 L 6.578125 -30.21875 C 7.296875 -30.21875 7.671875 -29.890625 7.703125 -29.234375 L 10.4375 -6.0625 L 10.765625 -6.0625 L 15.28125 -29.375 C 15.375 -29.9375 15.703125 -30.21875 16.265625 -30.21875 L 21.53125 -30.21875 C 22.125 -30.21875 22.46875 -29.953125 22.5625 -29.421875 L 27.171875 -6.0625 L 27.546875 -6.0625 L 30.21875 -29.1875 C 30.25 -29.875 30.625 -30.21875 31.34375 -30.21875 L 36.234375 -30.21875 C 36.984375 -30.21875 37.3125 -29.875 37.21875 -29.1875 L 32.140625 -0.984375 C 32.046875 -0.328125 31.6875 0 31.0625 0 L 24.4375 0 C 23.78125 0 23.40625 -0.328125 23.3125 -0.984375 L 19.078125 -23.03125 L 18.890625 -23.03125 L 14.609375 -0.984375 C 14.484375 -0.328125 14.109375 0 13.484375 0 Z M 13.484375 0 "/></g></g></g><g fill="#799e29" fill-opacity="1"><g transform="translate(144.702276, 311.00016)"><g><path d="M 6.546875 0.171875 C 5.453125 0.171875 4.484375 -0.046875 3.640625 -0.484375 C 2.804688 -0.929688 2.15625 -1.546875 1.6875 -2.328125 C 1.226562 -3.117188 1 -4.035156 1 -5.078125 L 1 -9.859375 C 1 -10.898438 1.226562 -11.816406 1.6875 -12.609375 C 2.15625 -13.410156 2.804688 -14.023438 3.640625 -14.453125 C 4.484375 -14.890625 5.453125 -15.109375 6.546875 -15.109375 C 7.628906 -15.109375 8.585938 -14.894531 9.421875 -14.46875 C 10.253906 -14.039062 10.898438 -13.457031 11.359375 -12.71875 C 11.828125 -11.988281 12.0625 -11.175781 12.0625 -10.28125 L 12.0625 -10.25 C 12.0625 -10 11.941406 -9.875 11.703125 -9.875 L 9.40625 -9.875 C 9.289062 -9.875 9.203125 -9.890625 9.140625 -9.921875 C 9.078125 -9.960938 9.046875 -10.003906 9.046875 -10.046875 L 9.046875 -10.203125 C 9.046875 -10.859375 8.816406 -11.410156 8.359375 -11.859375 C 7.910156 -12.304688 7.304688 -12.53125 6.546875 -12.53125 C 5.785156 -12.53125 5.171875 -12.289062 4.703125 -11.8125 C 4.242188 -11.332031 4.015625 -10.710938 4.015625 -9.953125 L 4.015625 -5 C 4.015625 -4.226562 4.257812 -3.601562 4.75 -3.125 C 5.25 -2.644531 5.882812 -2.40625 6.65625 -2.40625 C 7.394531 -2.40625 7.984375 -2.597656 8.421875 -2.984375 C 8.867188 -3.378906 9.09375 -3.925781 9.09375 -4.625 L 9.09375 -5.578125 C 9.09375 -5.660156 9.050781 -5.703125 8.96875 -5.703125 L 6.703125 -5.703125 C 6.460938 -5.703125 6.34375 -5.820312 6.34375 -6.0625 L 6.34375 -7.8125 C 6.34375 -8.050781 6.460938 -8.171875 6.703125 -8.171875 L 11.703125 -8.171875 C 11.941406 -8.171875 12.0625 -8.050781 12.0625 -7.8125 L 12.0625 -5.09375 C 12.0625 -4.019531 11.832031 -3.082031 11.375 -2.28125 C 10.914062 -1.488281 10.269531 -0.878906 9.4375 -0.453125 C 8.613281 -0.0351562 7.648438 0.171875 6.546875 0.171875 Z M 6.546875 0.171875 "/></g></g></g><g fill="#799e29" fill-opacity="1"><g transform="translate(162.797579, 311.00016)"><g><path d="M 9.578125 0 C 9.398438 0 9.257812 -0.09375 9.15625 -0.28125 L 6.53125 -6.078125 C 6.5 -6.148438 6.445312 -6.1875 6.375 -6.1875 L 4.4375 -6.1875 C 4.351562 -6.1875 4.3125 -6.144531 4.3125 -6.0625 L 4.3125 -0.359375 C 4.3125 -0.117188 4.191406 0 3.953125 0 L 1.671875 0 C 1.421875 0 1.296875 -0.117188 1.296875 -0.359375 L 1.296875 -14.59375 C 1.296875 -14.84375 1.421875 -14.96875 1.671875 -14.96875 L 7.65625 -14.96875 C 8.570312 -14.96875 9.375 -14.773438 10.0625 -14.390625 C 10.75 -14.015625 11.28125 -13.484375 11.65625 -12.796875 C 12.039062 -12.117188 12.234375 -11.335938 12.234375 -10.453125 C 12.234375 -9.484375 11.988281 -8.648438 11.5 -7.953125 C 11.019531 -7.265625 10.351562 -6.773438 9.5 -6.484375 C 9.457031 -6.472656 9.425781 -6.445312 9.40625 -6.40625 C 9.394531 -6.375 9.40625 -6.34375 9.4375 -6.3125 L 12.25 -0.421875 C 12.289062 -0.367188 12.3125 -0.304688 12.3125 -0.234375 C 12.3125 -0.160156 12.28125 -0.101562 12.21875 -0.0625 C 12.164062 -0.0195312 12.09375 0 12 0 Z M 4.4375 -12.359375 C 4.351562 -12.359375 4.3125 -12.316406 4.3125 -12.234375 L 4.3125 -8.640625 C 4.3125 -8.554688 4.351562 -8.515625 4.4375 -8.515625 L 7.21875 -8.515625 C 7.8125 -8.515625 8.296875 -8.6875 8.671875 -9.03125 C 9.046875 -9.382812 9.234375 -9.847656 9.234375 -10.421875 C 9.234375 -10.984375 9.046875 -11.445312 8.671875 -11.8125 C 8.296875 -12.175781 7.8125 -12.359375 7.21875 -12.359375 Z M 4.4375 -12.359375 "/></g></g></g><g fill="#799e29" fill-opacity="1"><g transform="translate(181.042232, 311.00016)"><g><path d="M 11.671875 -12.71875 C 11.671875 -12.476562 11.550781 -12.359375 11.3125 -12.359375 L 4.4375 -12.359375 C 4.351562 -12.359375 4.3125 -12.316406 4.3125 -12.234375 L 4.3125 -8.96875 C 4.3125 -8.882812 4.351562 -8.84375 4.4375 -8.84375 L 8.90625 -8.84375 C 9.144531 -8.84375 9.265625 -8.71875 9.265625 -8.46875 L 9.265625 -6.609375 C 9.265625 -6.367188 9.144531 -6.25 8.90625 -6.25 L 4.4375 -6.25 C 4.351562 -6.25 4.3125 -6.207031 4.3125 -6.125 L 4.3125 -2.703125 C 4.3125 -2.617188 4.351562 -2.578125 4.4375 -2.578125 L 11.3125 -2.578125 C 11.550781 -2.578125 11.671875 -2.457031 11.671875 -2.21875 L 11.671875 -0.359375 C 11.671875 -0.117188 11.550781 0 11.3125 0 L 1.671875 0 C 1.421875 0 1.296875 -0.117188 1.296875 -0.359375 L 1.296875 -14.578125 C 1.296875 -14.816406 1.421875 -14.9375 1.671875 -14.9375 L 11.3125 -14.9375 C 11.550781 -14.9375 11.671875 -14.816406 11.671875 -14.578125 Z M 11.671875 -12.71875 "/></g></g></g><g fill="#799e29" fill-opacity="1"><g transform="translate(198.646821, 311.00016)"><g><path d="M 11.671875 -12.71875 C 11.671875 -12.476562 11.550781 -12.359375 11.3125 -12.359375 L 4.4375 -12.359375 C 4.351562 -12.359375 4.3125 -12.316406 4.3125 -12.234375 L 4.3125 -8.96875 C 4.3125 -8.882812 4.351562 -8.84375 4.4375 -8.84375 L 8.90625 -8.84375 C 9.144531 -8.84375 9.265625 -8.71875 9.265625 -8.46875 L 9.265625 -6.609375 C 9.265625 -6.367188 9.144531 -6.25 8.90625 -6.25 L 4.4375 -6.25 C 4.351562 -6.25 4.3125 -6.207031 4.3125 -6.125 L 4.3125 -2.703125 C 4.3125 -2.617188 4.351562 -2.578125 4.4375 -2.578125 L 11.3125 -2.578125 C 11.550781 -2.578125 11.671875 -2.457031 11.671875 -2.21875 L 11.671875 -0.359375 C 11.671875 -0.117188 11.550781 0 11.3125 0 L 1.671875 0 C 1.421875 0 1.296875 -0.117188 1.296875 -0.359375 L 1.296875 -14.578125 C 1.296875 -14.816406 1.421875 -14.9375 1.671875 -14.9375 L 11.3125 -14.9375 C 11.550781 -14.9375 11.671875 -14.816406 11.671875 -14.578125 Z M 11.671875 -12.71875 "/></g></g></g><g fill="#799e29" fill-opacity="1"><g transform="translate(216.25141, 311.00016)"><g><path d="M 1.671875 0 C 1.421875 0 1.296875 -0.117188 1.296875 -0.359375 L 1.296875 -14.578125 C 1.296875 -14.816406 1.421875 -14.9375 1.671875 -14.9375 L 3.859375 -14.9375 C 4.046875 -14.9375 4.191406 -14.859375 4.296875 -14.703125 L 9.625 -5.828125 C 9.65625 -5.765625 9.6875 -5.738281 9.71875 -5.75 C 9.757812 -5.769531 9.78125 -5.8125 9.78125 -5.875 L 9.78125 -14.578125 C 9.78125 -14.816406 9.898438 -14.9375 10.140625 -14.9375 L 12.375 -14.9375 C 12.625 -14.9375 12.75 -14.816406 12.75 -14.578125 L 12.75 -0.359375 C 12.75 -0.117188 12.625 0 12.375 0 L 10.203125 0 C 10.035156 0 9.894531 -0.0820312 9.78125 -0.25 L 4.421875 -9.21875 C 4.390625 -9.28125 4.351562 -9.300781 4.3125 -9.28125 C 4.28125 -9.269531 4.265625 -9.234375 4.265625 -9.171875 L 4.296875 -0.359375 C 4.296875 -0.117188 4.171875 0 3.921875 0 Z M 1.671875 0 "/></g></g></g></svg>